# xmcd
#
# Track frame offsets:
#	150
#	19153
#	38014
#	51483
#	67006
#	75850
#	92872
#	110660
#	131241
#	146034
#
# Disc length: 2234 seconds
#
# Revision: 3
# Processed by: cddbd v1.5.2PL0 Copyright (c) Steve Scherf et al.
# Submitted via: EZCDAudioConverter 8.0.2.1
#
DISCID=8d08b80a
DTITLE=Nguyên Vũ - Vol 01. Hát Cho Tình Yêu Đầu
DYEAR=2000
DGENRE=World Pop
TTITLE0=Nguyên Vũ - Hối tiếc
TTITLE1=Nguyên Vũ - Hát Cho Tình yêu Đầu
TTITLE2=Nguyên Vũ - Em còn nhớ hay quên
TTITLE3=Nguyên Vũ, Mỹ Tâm - Buổi sáng trên bãi biển
TTITLE4=Nguyên Vũ (Tuệ Anh, Tuệ Các, Việt nguyễn) - Tình quay gót (Acapella)
TTITLE5=Nguyên Vũ - Bọt nước
TTITLE6=Nguyên Vũ, Nhóm Mắt Ngọc - Trong đôi mắt em
TTITLE7=Nguyên Vũ - Tình nhớ
TTITLE8=Nguyên Vũ - Trái tim nhiều ngăn
TTITLE9=Nguyên Vũ - Bước chân cuối cùng
EXTD=
EXTT0=
EXTT1=
EXTT2=
EXTT3=
EXTT4=
EXTT5=
EXTT6=
EXTT7=
EXTT8=
EXTT9=
PLAYORDER=
